Coordinates
version=1
nRows=43
nColumns=12
inDegrees=yes

Units are S.I. units (second, meters, Newtons, ...)
Angles are in degrees

endheader
time	SC_y	SC_z	SC_x	AC_y	AC_z	AC_x	GH_y	GH_z	GH_yy	EL_x	PS_y
       0.0              -28.04          27.15          70.01          66.11         -13.48         -4.968         -9.381          4.211         0.6185          62.38           11.3
   0.04602              -28.04          27.15          70.01          66.11         -13.47         -4.969         -9.391          4.213         0.6167          62.38          11.31
   0.09204              -28.05          27.15          70.01           66.1         -13.47          -4.97         -9.402          4.215         0.6148          62.37          11.31
    0.1381              -28.05          27.15           70.0           66.1         -13.47         -4.972         -9.414          4.217         0.6127          62.37          11.32
    0.1841              -28.05          27.15           70.0          66.09         -13.46         -4.973         -9.426          4.219         0.6106          62.36          11.33
    0.2301              -28.06          27.15          69.99          66.08         -13.46         -4.975         -9.439          4.222         0.6083          62.35          11.35
    0.2761              -28.06          27.16          69.99          66.08         -13.45         -4.977         -9.453          4.224         0.6058          62.34          11.36
    0.3221              -28.07          27.16          69.98          66.07         -13.45         -4.978         -9.467          4.227         0.6032          62.33          11.37
    0.3682              -28.07          27.16          69.98          66.06         -13.44          -4.98         -9.483           4.23         0.6004          62.33          11.38
    0.4142              -28.08          27.16          69.97          66.05         -13.44         -4.982           -9.5          4.233         0.5973          62.32           11.4
    0.4602              -28.09          27.16          69.97          66.04         -13.43         -4.985         -9.518          4.237         0.5941          62.31          11.41
    0.5062              -28.09          27.17          69.96          66.03         -13.43         -4.987         -9.538           4.24         0.5906          62.29          11.43
    0.5523               -28.1          27.17          69.95          66.02         -13.42         -4.989         -9.559          4.244         0.5868          62.28          11.45
    0.5983              -28.11          27.17          69.94          66.01         -13.41         -4.992         -9.582          4.249         0.5828          62.27          11.47
    0.6443              -28.11          27.18          69.94           66.0          -13.4         -4.995         -9.607          4.253         0.5784          62.26          11.49
    0.6903              -28.12          27.18          69.93          65.98          -13.4         -4.998         -9.634          4.258         0.5736          62.24          11.51
    0.7363              -28.13          27.18          69.92          65.97         -13.39         -5.002         -9.663          4.264         0.5684          62.22          11.54
    0.7824              -28.14          27.19          69.91          65.95         -13.38         -5.006         -9.695           4.27         0.5627          62.21          11.56
    0.8284              -28.15          27.19          69.89          65.93         -13.36          -5.01         -9.729          4.277         0.5566          62.19          11.59
    0.8744              -28.17           27.2          69.88          65.91         -13.35         -5.015         -9.767          4.284         0.5498          62.17          11.62
    0.9204              -28.18           27.2          69.87          65.89         -13.34          -5.02         -9.809          4.292         0.5424          62.14          11.66
    0.9664               -28.2          27.21          69.85          65.87         -13.32         -5.025         -9.855            4.3         0.5342          62.12           11.7
     1.012              -28.21          27.21          69.83          65.84         -13.31         -5.031         -9.906           4.31         0.5252          62.09          11.74
     1.058              -28.23          27.22          69.81          65.81         -13.29         -5.038         -9.962          4.321         0.5152          62.06          11.79
     1.105              -28.25          27.23          69.79          65.78         -13.27         -5.046         -10.02          4.333         0.5041          62.02          11.84
     1.151              -28.27          27.24          69.77          65.74         -13.24         -5.054         -10.09          4.346         0.4917          61.98           11.9
     1.197               -28.3          27.25          69.74           65.7         -13.22         -5.064         -10.17          4.361         0.4778          61.94          11.97
     1.243              -28.33          27.26          69.71          65.66         -13.19         -5.074         -10.26          4.377         0.4622          61.89          12.04
     1.289              -28.36          27.27          69.68          65.61         -13.16         -5.086         -10.36          4.396         0.4445          61.83          12.13
     1.335               -28.4          27.29          69.64          65.55         -13.12           -5.1         -10.47          4.417         0.4245          61.77          12.22
     1.381              -28.44           27.3           69.6          65.48         -13.08         -5.115          -10.6          4.442         0.4016           61.7          12.33
     1.427              -28.49          27.32          69.55           65.4         -13.03         -5.133         -10.75           4.47         0.3753          61.61          12.46
     1.473              -28.55          27.35          69.49          65.32         -12.97         -5.154         -10.92          4.502          0.345          61.52           12.6
     1.519              -28.61          27.37          69.42          65.21         -12.91         -5.178         -11.12           4.54         0.3098          61.41          12.77
     1.565              -28.69           27.4          69.34          65.09         -12.83         -5.206         -11.35          4.583         0.2685          61.27          12.97
     1.611              -28.78          27.44          69.25          64.95         -12.74         -5.239         -11.62          4.635           0.22          61.12           13.2
     1.657              -28.89          27.48          69.14          64.78         -12.64         -5.278         -11.95          4.697         0.1622          60.94          13.47
     1.703              -29.01          27.53          69.01          64.58         -12.51         -5.325         -12.33          4.771        0.09299          60.72          13.81
     1.749              -29.17          27.59          68.85          64.34         -12.36         -5.382         -12.81           4.86       0.009247          60.45           14.2
     1.795              -29.36          27.66          68.65          64.04         -12.17         -5.452         -13.38          4.969       -0.09306          60.13          14.69
     1.841              -29.59          27.76          68.41          63.67         -11.94         -5.538         -14.09          5.103        -0.2193          59.73           15.3
     1.887              -29.89          27.87          68.11          63.21         -11.65         -5.645         -14.97          5.271        -0.3768          59.23          16.05
     1.933              -30.25          28.01          67.72          62.63         -11.28          -5.78         -16.09          5.482        -0.5751           58.6          16.99
